<svg width="2000" height="2000" xmlns="http://www.w3.org/2000/svg" preserveAspectRatio="xMidYMid meet">
 <metadata>Created by potrace 1.16, written by Peter Selinger 2001-2019</metadata>

 <g>
  <title>background</title>
  <rect fill="none" id="canvas_background" height="602" width="802" y="-1" x="-1"/>
 </g>
 <g>
  <title>Layer 1</title>
  <g id="svg_1" fill="#000000" transform="translate(0,2000) scale(0.10000000149011612,-0.10000000149011612) ">
   <path fill="#2e91cd" id="svg_2" d="m7949,14746c-2,-2 -94,-6 -204,-9c-541,-16 -1159,-110 -1701,-258c-1013,-276 -2030,-825 -2799,-1510c-460,-410 -858,-894 -1194,-1451l-22,-37l58,30c77,39 157,53 228,40c56,-11 109,-33 120,-52c12,-19 -1,-19 -56,2c-93,36 -195,27 -313,-27c-55,-25 -55,-25 -136,-173c-332,-611 -575,-1293 -736,-2061c-4,-23 -2,-22 23,10c174,222 438,382 716,435c91,17 201,20 192,5c-3,-5 -21,-10 -39,-10c-94,0 -290,-53 -424,-115c-155,-72 -341,-219 -441,-349c-42,-54 -44,-59 -72,-223c-163,-934 -177,-2029 -38,-2963c11,-74 24,-139 28,-143c4,-4 39,18 77,50c280,234 658,383 1074,424c148,14 410,7 554,-16c55,-8 101,-13 104,-10c3,2 9,50 13,105c31,358 178,708 398,943c98,105 264,219 411,282c207,89 377,119 676,119l220,1l32,65c76,160 219,383 356,559c102,132 292,330 416,433c198,166 464,321 681,396c106,37 290,79 386,88l71,7l-14,-79c-22,-118 -70,-208 -153,-287c-58,-54 -98,-80 -243,-152c-95,-49 -200,-105 -234,-126c-120,-76 -202,-190 -233,-324c-6,-27 -20,-113 -31,-190c-36,-247 -69,-333 -162,-422c-87,-81 -155,-110 -443,-188c-247,-68 -399,-178 -515,-375c-74,-124 -117,-311 -100,-437c15,-124 178,-258 457,-378l113,-49l83,83c95,93 148,133 245,184c68,36 221,92 229,84c9,-10 -10,-56 -39,-91c-16,-20 -65,-63 -108,-96c-90,-69 -149,-133 -157,-173c-7,-33 -149,-171 -298,-290c-55,-44 -101,-84 -103,-88c-2,-5 58,-196 133,-425c75,-229 134,-421 132,-427c-10,-31 -184,471 -248,713c-18,69 -34,126 -35,128c-1,2 -52,-27 -113,-64c-236,-141 -429,-203 -663,-211c-128,-5 -302,6 -360,23c-14,4 -9,-25 32,-185c27,-105 75,-274 106,-376c31,-102 54,-188 51,-191c-9,-9 -82,193 -125,341c-35,123 -66,256 -86,378c-4,20 -8,37 -10,37c-1,0 -52,7 -112,16c-147,21 -339,21 -429,0c-96,-22 -155,-45 -155,-60c0,-44 238,-796 258,-818c4,-4 45,6 92,22c47,16 119,36 160,45c115,25 402,30 692,11c270,-18 394,-20 402,-8c2,4 -31,95 -74,203c-66,167 -181,479 -205,558c-5,15 -4,21 3,17c13,-8 108,-248 218,-546c95,-261 76,-243 236,-215c243,42 498,164 727,349c45,37 85,65 88,63c2,-3 -5,-83 -16,-178c-22,-190 -52,-517 -76,-814c-19,-240 -45,-621 -45,-651c0,-21 6,-19 69,29c379,285 939,365 1385,198c32,-12 71,-28 88,-37c57,-30 20,-25 -81,10c-454,158 -959,91 -1369,-183c-78,-53 -92,-67 -96,-94c-14,-88 -38,-739 -33,-902c9,-299 68,-491 200,-655c141,-174 334,-265 587,-277c75,-4 117,-9 105,-14c-49,-19 12,-5 199,46c110,30 232,63 269,74c67,19 68,20 55,1c-141,-199 -207,-318 -229,-416l-12,-54l-1701,-1c-936,-1 -1782,-5 -1881,-8c-99,-4 3089,-7 7085,-7c3996,0 7177,3 7070,6c-107,4 -1529,8 -3160,9l-2965,1l-348,780l-348,780l29,133l28,134l-55,-13c-31,-7 -141,-34 -244,-59c-104,-26 -191,-44 -194,-41c-3,3 -17,54 -30,113c-132,583 -181,808 -178,813c2,4 56,28 118,54c99,41 126,58 203,125c214,187 285,278 347,446c23,63 32,93 52,188c6,29 56,67 88,67c10,0 32,-14 49,-30l30,-31l-4,-112c-6,-129 -35,-234 -100,-359c-70,-134 -39,-159 145,-114c75,19 118,24 148,20c55,-9 129,-60 156,-109c45,-81 163,-365 174,-417c11,-58 4,-130 -17,-192l-14,-40l47,-48c27,-27 80,-77 120,-110c40,-34 71,-64 68,-66c-9,-9 -167,83 -217,128l-55,49l-21,-28c-11,-15 -41,-42 -66,-59l-46,-30l47,-42c180,-159 374,-234 633,-244c76,-3 107,-9 154,-30c86,-39 220,-76 303,-83c71,-6 73,-7 73,-32c0,-86 78,-268 152,-358c90,-108 217,-188 352,-223c68,-17 127,-19 703,-24c345,-3 1268,-5 2050,-5l1421,-1l-15,-40c-21,-53 -9,-105 30,-134c25,-18 47,-22 180,-26c170,-7 186,-12 252,-80c47,-49 84,-70 122,-70c32,0 93,34 93,52c1,25 50,-79 79,-167c36,-111 50,-178 66,-319c12,-109 13,-107 14,196c1,322 11,422 61,616c54,212 124,359 165,346c99,-28 155,-24 253,21c102,47 245,214 400,467c120,199 126,311 18,362c-119,56 -397,-50 -578,-222l-38,-36l-1,459c-1,253 -5,2645 -8,5315l-7,4855l-2,-5323l-2,-5323l-40,-52c-68,-90 -93,-159 -98,-263c-4,-80 -1,-98 22,-155l26,-64l-27,-67c-21,-55 -40,-81 -100,-139c-40,-39 -75,-70 -78,-68c-2,2 -13,80 -25,174c-18,138 -19,170 -8,174c7,2 30,21 50,43c58,60 73,123 72,303c0,163 -15,264 -60,400c-61,189 -139,307 -210,321c-190,35 -291,-225 -219,-564c26,-123 84,-321 109,-371c42,-83 126,-141 202,-141c25,0 26,0 50,-203c20,-172 27,-158 -97,-206l-76,-30l-69,24c-140,49 -311,42 -433,-17l-63,-30l-2052,7c-1951,7 -2055,8 -2124,26c-177,45 -341,178 -420,339c-40,82 -72,181 -72,226c0,19 7,22 78,27c166,11 345,100 483,239c234,236 397,644 440,1105c15,169 14,164 45,153c74,-28 159,-1 169,54c12,59 -25,96 -96,96c-24,0 -29,4 -29,25c0,24 3,25 55,25c52,0 55,1 55,25c0,24 -2,25 -74,25l-73,0l-7,-31c-3,-17 -6,-49 -6,-70c0,-38 1,-39 34,-39c51,0 86,-16 86,-39c0,-32 -36,-45 -83,-31c-32,9 -41,9 -48,-2c-6,-8 -9,2 -9,28c0,36 -7,49 -62,109c-180,196 -353,310 -590,389c-163,55 -274,70 -470,64l-168,-6l21,29c11,16 25,29 31,29c6,0 6,-6 -2,-15c-7,-9 -11,-17 -8,-20c2,-2 35,1 73,7c92,14 297,4 405,-21c295,-67 560,-232 744,-461l28,-35l-6,217l-5,218l332,3l332,2l-337,3l-338,2l0,38c0,49 -44,352 -69,472c-11,52 -18,97 -15,99c2,2 35,4 73,4l69,0l4,73c9,143 108,282 245,347c61,29 77,32 158,32c81,0 97,-3 159,-33c39,-18 89,-48 112,-67c50,-42 107,-125 125,-183l12,-43l26,25c37,36 92,56 151,56c104,0 192,-79 214,-190c6,-27 17,-42 53,-65c60,-39 101,-91 124,-157c10,-29 18,-44 18,-33c1,56 -69,161 -134,202c-37,23 -45,35 -59,84c-30,109 -113,173 -223,172c-47,0 -72,-7 -109,-27c-25,-14 -48,-26 -49,-26c-1,0 -15,26 -31,58c-38,78 -123,161 -209,203c-67,32 -75,34 -180,34c-104,0 -114,-2 -177,-33c-126,-62 -221,-195 -242,-339l-10,-73l-53,-2c-29,0 -58,-1 -64,-2c-6,-1 -28,67 -48,149c-62,247 -196,665 -213,665c-4,0 -164,-47 -355,-105c-192,-58 -382,-115 -423,-127c-41,-12 -79,-25 -83,-28c-4,-4 -32,-301 -61,-661c-30,-360 -57,-662 -61,-672c-6,-13 -25,22 -74,135c-37,84 -75,169 -84,188c-8,19 -68,149 -131,288c-147,320 -339,709 -455,924c-50,92 -91,169 -91,171c0,2 143,-36 317,-85c175,-48 324,-88 331,-88c7,0 38,39 69,88c31,48 83,128 116,177l59,90l-16,120c-10,65 -19,122 -21,125c-2,3 -87,-1 -189,-9c-207,-16 -234,-13 -249,33c-7,22 -5,33 10,54c16,22 44,33 164,64c189,50 183,47 119,70c-49,17 -71,19 -193,12c-135,-6 -139,-6 -163,17c-16,15 -24,33 -24,55c0,57 25,67 244,98l195,28l122,-47c67,-25 123,-44 125,-43c2,2 -56,63 -129,135l-132,131l-140,42c-159,48 -185,65 -185,121c0,47 30,79 75,79c46,0 336,-60 366,-76c15,-7 75,-58 135,-113c59,-55 110,-99 112,-96c2,2 1,72 -3,155l-8,151l-146,128c-185,163 -186,163 -186,213c0,52 38,88 93,88c33,0 60,-18 237,-160l200,-161l22,-172c12,-95 23,-183 25,-197c3,-21 16,-8 93,94c79,105 90,116 95,95c6,-22 10,-19 45,36c21,33 85,131 141,218l104,157l-335,250l-335,250l-2,2467c-2,1358 -2,2529 -1,2603c3,158 18,223 75,340c58,119 169,230 288,288c151,74 133,73 818,70l610,-3l39,-31c69,-56 82,-92 88,-250c4,-119 8,-145 28,-184c28,-54 89,-99 148,-111c54,-10 1325,-12 1315,-1c-4,4 -308,9 -676,12l-668,5l-43,30c-69,49 -83,87 -89,250c-7,159 -18,192 -80,249c-22,19 -57,40 -80,46c-28,8 -223,10 -638,7c-660,-4 -636,-1 -777,-71c-165,-82 -277,-213 -346,-406l-24,-65l-3,-2607c-1,-1751 -6,-2608 -12,-2608c-6,0 -52,31 -103,69c-108,81 -225,147 -237,135c-7,-8 -964,-1584 -1105,-1821c-47,-78 -50,-82 -70,-68c-211,152 -378,227 -570,254c-139,20 -286,55 -281,67c2,6 8,33 12,60c5,34 16,60 38,84c41,46 89,131 110,195c9,28 29,119 46,203c32,161 63,253 105,308c29,38 98,104 201,192c136,115 194,238 194,408c0,115 -23,186 -104,313c-82,129 -115,206 -128,299l-12,81l66,168c93,233 101,266 96,382c-6,147 -45,216 -271,477c-73,83 -141,190 -153,237c-6,27 -5,28 31,25l37,-3l43,145c86,286 220,617 371,920c404,807 928,1409 1548,1780c83,49 88,54 70,67c-10,8 -109,58 -219,113c-324,159 -692,309 -1056,431c-173,57 -515,159 -536,159c-36,0 -148,-66 -207,-121c-69,-64 -101,-78 -65,-28c39,56 103,110 163,138l59,29l-169,40c-602,145 -1144,220 -1754,242c-303,11 -325,11 -331,6zm-1599,-368c-113,-62 -224,-178 -281,-293c-53,-108 -48,-100 -54,-93c-4,3 4,34 15,69c22,67 67,142 121,204c41,46 149,124 197,141c74,26 75,13 2,-28zm2949,-1c50,-11 41,-12 -115,-13c-117,0 -197,-5 -259,-17c-393,-76 -714,-287 -934,-615c-46,-68 -128,-228 -156,-304c-10,-27 -21,-48 -26,-48c-5,0 5,39 22,88c116,326 371,616 685,776c249,126 569,181 783,133zm-3429,-462c-316,-87 -588,-279 -769,-545c-69,-100 -106,-173 -152,-295c-41,-108 -53,-84 -15,29c58,171 153,323 294,468c51,53 132,124 180,158c156,111 392,209 502,209c42,0 40,-2 -40,-24zm5168,-110c-2,-3 -69,-9 -148,-15c-557,-40 -1047,-298 -1364,-719c-143,-190 -242,-382 -306,-591c-17,-58 -36,-114 -40,-125c-19,-44 -10,31 14,117c121,438 415,831 801,1068c215,133 520,237 765,263c55,6 284,8 278,2zm-3576,-380c96,-17 218,-52 218,-63c0,-5 -40,2 -89,14c-255,65 -505,51 -772,-42c-442,-154 -810,-523 -1032,-1037c-44,-102 -66,-109 -26,-9c41,104 146,306 206,397c273,413 669,681 1102,744c94,14 303,12 393,-4zm-2592,-453c0,-4 -46,-14 -102,-21c-120,-15 -299,-60 -403,-101c-358,-142 -602,-360 -776,-693c-44,-84 -59,-105 -59,-84c0,36 63,160 141,278c75,111 233,274 339,348c148,104 362,197 550,240c146,34 310,51 310,33zm4175,-645c44,-9 91,-19 105,-21c14,-3 27,-5 29,-5c2,-1 -2,-8 -9,-16c-9,-11 -15,-12 -20,-5c-24,38 -513,60 -705,31c-373,-55 -665,-170 -989,-389c-344,-232 -585,-522 -721,-867c-30,-77 -51,-109 -39,-60c13,56 65,179 121,287c144,278 420,552 758,755c285,171 526,253 900,307c76,11 493,-2 570,-17zm-3461,-108c42,-6 83,-18 93,-26c17,-13 16,-14 -7,-9c-141,32 -335,30 -499,-5c-456,-99 -810,-367 -1105,-839c-76,-120 -228,-417 -307,-597c-46,-107 -69,-145 -69,-114c0,29 176,416 262,574c122,226 305,477 439,602c336,313 797,473 1193,414zm-2183,-253c70,-20 79,-21 80,-7c1,9 4,5 8,-9c9,-30 -8,-60 -21,-36c-20,36 -245,65 -369,47c-183,-27 -325,-97 -456,-227c-46,-44 -83,-80 -83,-79c0,24 43,85 94,133c114,106 261,177 416,201c92,14 239,4 331,-23zm3119,-961c107,-17 178,-41 90,-31c-25,3 -87,11 -138,17c-142,17 -423,7 -552,-21c-273,-58 -591,-201 -895,-403c-414,-275 -757,-703 -937,-1172c-54,-139 -51,-132 -55,-114c-6,23 52,179 117,317c216,452 535,804 968,1066c357,216 660,328 977,360c79,8 322,-3 425,-19zm3023,-15c14,-13 -39,-104 -83,-144c-24,-21 -70,-51 -104,-67c-56,-26 -356,-112 -364,-104c-2,1 48,20 110,40c215,72 312,136 364,241c23,46 30,54 48,48c11,-3 25,-10 29,-14zm97,-46c202,-132 360,-411 404,-715c34,-234 51,-1071 27,-1314c-31,-306 -99,-503 -231,-670c-90,-112 -191,-189 -325,-244c-63,-26 -87,-31 -196,-35c-68,-3 -153,-12 -189,-21c-41,-10 -124,-18 -225,-20c-132,-3 -177,0 -255,16c-104,22 -229,69 -357,134l-84,42l-104,171c-58,94 -105,175 -105,181c0,5 16,19 35,31c53,32 139,134 178,208c85,162 94,303 34,548c-46,188 -48,240 -9,277c15,15 92,56 171,92c148,66 220,115 253,171c32,55 155,71 263,34c32,-11 60,-18 63,-15c10,10 -29,53 -65,71c-40,20 -143,26 -194,12c-24,-7 -26,-5 -22,16c3,14 12,27 20,30c8,3 76,11 151,16c75,6 141,15 146,20c14,14 -10,37 -62,57c-49,18 -151,24 -209,11l-33,-7l0,137c1,331 79,425 434,517c76,20 167,49 202,65c80,36 156,106 183,170c12,28 27,50 34,50c7,0 37,-16 67,-36zm-6250,-295c108,-13 241,-46 260,-65c18,-18 7,-18 -55,2c-73,22 -229,44 -315,44c-41,0 -118,-7 -170,-14c-426,-65 -762,-346 -914,-766l-17,-45l4,52c3,36 19,82 55,156c214,438 679,695 1152,636zm5291,-752c-7,-19 -20,-42 -31,-52c-11,-10 -17,-21 -14,-26c18,-29 -79,-105 -199,-156c-118,-50 -149,-64 -180,-86c-16,-10 -30,-17 -32,-15c-2,2 5,23 15,46c27,60 102,136 233,235c102,77 118,86 163,89c27,2 51,2 52,1c2,-1 -1,-17 -7,-36zm1574,-583c9,-21 42,-81 75,-134c107,-173 115,-197 115,-335c0,-102 -4,-129 -23,-178c-34,-84 -93,-155 -217,-260c-174,-148 -203,-202 -260,-487c-34,-175 -64,-257 -122,-338l-34,-47l5,65c3,36 8,101 11,145c20,276 51,337 310,606c88,91 176,192 195,224c70,118 95,242 69,340c-6,22 -44,108 -85,190c-81,163 -100,233 -88,319l7,51l13,-62c7,-34 20,-78 29,-99zm-6321,-54c67,-10 84,-15 75,-24c-2,-2 -60,1 -128,7c-359,31 -759,-79 -1055,-291c-101,-73 -265,-234 -341,-336c-74,-100 -144,-222 -192,-334c-44,-103 -58,-123 -50,-69c8,49 101,243 163,339c123,192 318,382 499,490c192,114 432,198 635,221c74,8 328,6 394,-3zm-1716,-1182c-2,-36 -28,-87 -28,-55c0,22 -73,23 -196,2c-257,-45 -478,-156 -668,-335c-105,-100 -185,-204 -245,-320c-25,-47 -46,-79 -48,-73c-7,19 62,157 119,240c214,311 609,523 974,523c65,0 74,2 74,18c0,17 8,32 17,32c2,0 2,-15 1,-32zm5798,-88c-42,-60 -70,-146 -85,-255c-24,-173 -2,-751 33,-869c8,-27 25,-59 37,-72c12,-13 17,-24 11,-24c-16,0 -58,59 -70,100c-43,138 -63,764 -29,923c20,95 53,170 97,220c45,52 49,39 6,-23zm2927,-1397c-51,-78 -238,-193 -373,-230c-95,-26 -286,-23 -407,5c-51,12 -135,32 -185,44c-68,16 -125,22 -213,22c-106,0 -130,-3 -200,-28c-44,-15 -115,-48 -158,-72c-77,-45 -95,-49 -84,-21c8,20 170,101 257,128c108,34 254,32 410,-5c282,-66 294,-68 400,-68c129,0 229,25 338,82c72,37 187,125 205,156c4,8 12,14 18,14c5,0 2,-12 -8,-27zm-4356,-47c197,-42 384,-130 723,-342c344,-215 516,-300 692,-340c42,-10 87,-26 100,-36l23,-19l-45,7c-219,33 -436,136 -860,409c-462,298 -810,386 -1114,280c-39,-13 -72,-23 -74,-20c-13,12 129,61 223,76c69,11 245,3 332,-15zm-1153,-523c96,-278 196,-591 196,-612c-1,-14 -2,-13 -11,2c-30,52 -300,863 -298,897c1,25 33,-56 113,-287zm3746,167c0,-9 -149,-125 -241,-188c-156,-106 -377,-183 -569,-198c-76,-6 -83,-5 -70,9c9,9 59,21 125,30c134,19 252,55 365,112c80,40 257,158 337,224c34,28 53,32 53,11zm2283,-527c3,-5 -25,-8 -61,-9c-128,-2 -238,-63 -410,-227c-146,-140 -204,-184 -287,-222c-107,-49 -164,-60 -315,-59c-155,1 -385,41 -407,71c-7,9 -12,18 -10,19c2,2 27,-3 57,-12c200,-54 422,-68 552,-35c141,36 205,78 408,266c163,151 282,214 407,215c34,0 64,-3 66,-7zm-4946,-268c208,-44 326,-112 696,-404c151,-119 282,-203 375,-242c216,-89 439,-100 656,-32c147,46 256,112 489,297c377,299 546,359 876,310c91,-13 146,-33 130,-48c-2,-2 -35,2 -74,10c-126,25 -271,29 -364,10c-170,-35 -285,-99 -540,-300c-86,-67 -187,-144 -225,-170c-252,-172 -533,-224 -818,-152c-178,45 -308,122 -599,353c-210,167 -290,221 -401,273c-219,102 -466,117 -703,43c-135,-43 -262,-114 -353,-197c-23,-21 -45,-37 -48,-34c-6,6 65,76 118,114c94,71 251,139 384,168c92,19 313,20 401,1zm5257,-777c-80,-263 -317,-495 -591,-578c-120,-36 -131,-20 -14,22c134,48 243,114 347,211c89,84 182,212 224,309c24,56 48,81 34,36zm-2770,-678c15,-156 54,-294 116,-420c45,-89 97,-161 209,-290c99,-113 176,-219 203,-278c23,-52 41,-153 29,-165c-5,-5 -12,13 -16,41c-4,28 -19,77 -34,109c-28,58 -130,193 -214,282c-134,143 -225,294 -271,453c-23,80 -46,241 -45,318c0,82 13,54 23,-50zm-1033,-165c-78,-90 -93,-158 -92,-417c2,-238 -8,-301 -64,-407c-49,-91 -127,-180 -285,-321c-74,-66 -158,-148 -187,-181c-98,-117 -147,-240 -141,-359c3,-69 -4,-91 -16,-47c-13,49 -5,153 17,218c38,110 84,176 211,299c325,313 365,361 410,489c16,47 21,94 26,301c7,216 10,252 29,307c21,59 91,153 113,153c5,0 -4,-16 -21,-35zm9729,-1350c-17,-61 -38,-159 -48,-220l-18,-110l-14,167c-7,92 -13,171 -12,174c0,6 115,103 119,100c1,-1 -11,-51 -27,-111zm-101,-132c20,-235 31,-424 30,-528l-1,-100l-14,69c-16,81 -59,215 -87,271c-15,30 -20,62 -21,130c-2,98 -19,147 -70,194l-26,24l72,28c39,16 76,33 82,39c5,5 13,10 17,10c3,0 12,-62 18,-137zm-9573,-104c143,-151 431,-249 732,-249c145,0 253,12 537,60c337,57 449,70 613,70c240,0 434,-43 587,-131c75,-43 174,-123 164,-133c-3,-3 -17,4 -30,15c-13,12 -53,41 -89,64c-164,107 -356,155 -622,155c-164,0 -267,-12 -609,-69c-287,-49 -396,-61 -538,-61c-256,0 -469,57 -633,168c-72,50 -172,142 -152,142c6,0 23,-14 40,-31z"/>
   <path fill="#2e91cd" id="svg_3" d="m9689,10209c-53,-8 -77,-19 -103,-48c-36,-39 -16,-52 81,-49c49,1 113,1 143,-1c80,-4 90,-3 90,13c0,13 -63,76 -78,76c-4,1 -25,4 -47,8c-22,4 -61,5 -86,1z"/>
   <path fill="#2e91cd" id="svg_4" d="m9673,9918c-38,-13 -101,-63 -91,-73c4,-4 34,0 66,9c77,21 156,20 225,-3c67,-23 77,-10 27,33c-52,43 -151,58 -227,34z"/>
   <path fill="#2e91cd" id="svg_5" d="m9290,9889c0,-20 93,-285 162,-464c85,-218 98,-259 89,-273c-3,-6 -48,-17 -100,-26c-51,-8 -96,-17 -99,-20c-10,-11 166,-6 195,5c34,13 43,25 43,65c0,41 -155,453 -243,647c-34,72 -47,91 -47,66z"/>
   <path fill="#2e91cd" id="svg_6" d="m9765,9778c-21,-25 -25,-38 -21,-62c9,-46 39,-71 85,-71c54,0 91,35 91,85c0,50 -33,80 -87,80c-34,0 -46,-6 -68,-32z"/>
   <path fill="#2e91cd" id="svg_7" d="m8815,9765c-18,-17 -25,-35 -25,-64c0,-110 170,-107 173,3c2,76 -94,116 -148,61z"/>
   <path fill="#2e91cd" id="svg_8" d="m9044,9027c-3,-10 -4,-40 -2,-68c12,-123 151,-219 282,-195c35,7 51,26 22,26c-8,0 -44,9 -81,21c-87,27 -139,73 -181,164c-25,53 -34,66 -40,52z"/>
   <path fill="#2e91cd" id="svg_9" d="m13668,11584c-29,-15 -58,-61 -58,-89c0,-29 30,-74 60,-90c82,-43 180,6 180,90c0,84 -101,134 -182,89z"/>
   <path fill="#2e91cd" id="svg_10" d="m13327,11569c-53,-12 -84,-35 -114,-86c-31,-53 -41,-149 -24,-220c39,-153 215,-204 316,-92c40,44 55,92 55,175c0,160 -97,253 -233,223zm98,-103c29,-29 39,-77 33,-157c-3,-48 -10,-65 -31,-86c-31,-31 -77,-35 -107,-8c-34,31 -49,117 -34,194c15,74 90,105 139,57z"/>
   <path fill="#2e91cd" id="svg_11" d="m12900,11530l0,-40l45,0l45,0l0,-185l0,-185l50,0l50,0l0,225l0,225l-95,0l-95,0l0,-40z"/>
   <path fill="#2e91cd" id="svg_12" d="m14300,11330c0,-143 1,-150 20,-150c17,0 20,7 20,45l0,45l48,0c45,0 49,-2 77,-45c21,-32 37,-45 54,-45c26,0 28,-8 -25,75c-16,24 -15,26 9,46c32,25 44,77 25,116c-20,42 -71,63 -155,63l-73,0l0,-150zm170,92c14,-11 23,-29 23,-47c0,-43 -34,-65 -99,-65l-54,0l0,65l0,65l54,0c37,0 61,-6 76,-18z"/>
   <path fill="#2e91cd" id="svg_13" d="m14617,11398c-29,-10 -35,-47 -6,-39c8,3 33,6 55,9c34,3 44,0 57,-19c23,-32 13,-39 -49,-39c-41,0 -59,-5 -74,-20c-20,-20 -26,-56 -12,-76c21,-32 86,-43 125,-23c16,9 22,9 25,0c2,-6 13,-11 24,-11c19,0 20,5 16,91c-3,85 -5,92 -31,115c-30,26 -79,31 -130,12z"/>
   <path fill="#2e91cd" id="svg_14" d="m14970,11295c0,-108 1,-115 20,-115c18,0 20,7 20,75c0,85 18,115 68,115c48,0 62,-26 62,-113c0,-70 2,-77 20,-77c18,0 20,7 20,84c0,100 -4,112 -41,131c-35,19 -66,19 -101,1c-24,-13 -28,-13 -28,0c0,8 -9,14 -20,14c-19,0 -20,-7 -20,-115z"/>
   <path fill="#2e91cd" id="svg_15" d="m14775,10794c-80,-13 -158,-40 -240,-82c-71,-37 -109,-65 -181,-137c-142,-140 -214,-287 -236,-480l-11,-90l-91,3c-170,7 -308,-50 -437,-178c-84,-83 -145,-190 -154,-270l-5,-45l13,50c43,164 151,293 314,374c108,54 247,75 346,52l37,-9l0,67c0,259 182,536 434,661c117,57 197,73 331,67c109,-6 149,-14 254,-56c119,-48 265,-165 340,-275c42,-60 97,-180 106,-228c4,-21 9,-38 12,-38c2,0 21,13 41,30c20,16 64,42 97,57c53,24 72,28 160,28c88,0 107,-3 157,-27c134,-63 238,-215 238,-350c0,-34 4,-40 42,-59c24,-12 71,-49 106,-83c113,-108 168,-228 182,-396l9,-95l-4,100c-4,112 -28,194 -86,291c-37,61 -141,164 -192,190c-17,9 -33,17 -34,18c-1,1 -7,33 -13,71c-29,184 -167,327 -342,354c-107,18 -233,-12 -314,-74c-18,-14 -35,-25 -38,-25c-2,0 -8,15 -11,33c-12,53 -62,155 -109,220c-139,195 -368,321 -601,331c-49,3 -103,2 -120,0z"/>
   <path fill="#2e91cd" id="svg_16" d="m16204,7009c-29,-57 2,-129 56,-129c39,0 60,29 60,83c0,55 -18,77 -65,77c-28,0 -37,-6 -51,-31z"/>
   <path fill="#2e91cd" id="svg_17" d="m16268,6451c-135,-54 -231,-177 -253,-324l-7,-44l-64,-6c-160,-12 -288,-142 -283,-286c1,-28 3,-23 10,21c22,149 140,251 290,252l67,0l4,61c13,156 163,310 322,330c102,13 227,-35 308,-118c39,-40 98,-146 98,-175c0,-9 11,-5 30,12c29,24 86,46 120,46c91,0 199,-102 200,-187c0,-15 13,-31 39,-49c74,-49 121,-140 121,-234c0,-68 -16,-113 -61,-173l-31,-42l36,40c53,59 70,110 64,197c-3,46 -13,88 -26,113c-20,41 -103,125 -122,125c-5,0 -10,13 -10,28c0,46 -47,127 -91,158c-56,38 -137,45 -204,15c-26,-12 -49,-21 -51,-21c-1,0 -14,25 -28,55c-32,72 -115,154 -191,190c-80,38 -214,46 -287,16z"/>
   <path fill="#2e91cd" id="svg_18" d="m16582,5645l-72,-145l61,0c34,0 59,-4 57,-9c-4,-13 -337,-429 -348,-436c-8,-5 6,52 65,263l23,82l-99,0c-95,0 -110,4 -91,25c13,15 77,131 67,122c-5,-4 -28,-40 -52,-80l-43,-72l98,-5c81,-4 97,-8 94,-21c-1,-9 -26,-102 -56,-208c-40,-144 -49,-188 -36,-174c10,10 109,133 220,273l202,255l-66,3c-36,2 -66,5 -66,8c0,4 27,63 60,132c33,69 59,127 57,128c-1,2 -35,-62 -75,-141z"/>
   <path fill="#2e91cd" id="svg_19" d="m2920,5596c-129,-76 -257,-209 -317,-331l-20,-40l160,-391l160,-392l24,47c62,115 153,207 277,276l64,35l-40,92c-82,190 -218,642 -218,724c0,13 -3,24 -8,24c-4,0 -41,-20 -82,-44z"/>
   <path fill="#2e91cd" id="svg_20" d="m15726,4699c-57,-45 -19,-139 56,-139c16,0 38,5 49,10c29,16 25,-15 -7,-47c-21,-21 -31,-24 -64,-19c-30,5 -39,2 -44,-11c-9,-23 11,-33 66,-33c35,0 54,6 77,26c58,49 64,153 10,206c-35,36 -102,39 -143,7z"/>
   <path fill="#2e91cd" id="svg_21" d="m16370,4585c0,-69 3,-85 15,-85c9,0 15,9 15,25c0,20 5,25 25,25c15,0 31,-9 41,-25c9,-14 23,-25 31,-25c13,0 13,4 -2,26c-15,23 -15,27 -1,43c23,25 20,67 -6,85c-13,9 -43,16 -70,16l-48,0l0,-85z"/>
  </g>
 </g>
</svg>